<svg width="58" height="58" viewBox="0 0 58 58" fill="none" xmlns="http://www.w3.org/2000/svg">
<rect width="58" height="58" fill="white"/>
<g clip-path="url(#clip0_1466_6413)">
<g clip-path="url(#clip1_1466_6413)">
<path d="M38.5419 21.1274V30.1669C38.5409 30.4728 38.5021 30.7774 38.4263 31.0739C38.3989 31.1797 38.3654 31.2825 38.3289 31.3762C38.2112 31.741 38.0137 32.0754 37.7507 32.3556C37.4878 32.6357 37.1657 32.8546 36.8077 32.9967C31.6433 34.7955 26.0168 34.7955 20.8525 32.9967C19.8272 32.643 19.1061 31.4851 19.1061 30.1488V21.1274C22.17 22.4615 25.4788 23.1503 28.824 23.1503C32.1691 23.1503 35.478 22.4615 38.5419 21.1274Z" fill="url(#paint0_linear_1466_6413)"/>
<path d="M45.6919 21.1516C45.6919 24.5861 43.054 27.3795 39.8168 27.3795C38.9788 27.3769 38.1519 27.1888 37.3962 26.829C36.6404 26.4693 35.9748 25.9468 35.4477 25.2995C35.3625 25.1998 35.2803 25.1 35.2012 24.9972L34.9974 25.0456C34.2993 25.2087 33.5846 25.2909 32.8676 25.2905C32.2997 25.2897 31.7328 25.2422 31.1729 25.1484C30.0767 24.9621 29.0196 24.5953 28.0451 24.063C27.7926 23.924 27.5492 23.7607 27.3119 23.6156C27.2571 23.6972 27.1993 23.7788 27.1415 23.8544C26.6309 24.5707 25.9603 25.1596 25.1822 25.5751C24.404 25.9905 23.5396 26.2211 22.6568 26.2488C22.6102 26.2518 22.5634 26.2518 22.5168 26.2488C21.3314 26.2491 20.1769 25.8731 19.2217 25.1756C19.0939 25.2179 18.9692 25.2572 18.8414 25.2905C18.4445 25.3959 18.0352 25.4488 17.6244 25.4477C14.8191 25.4477 12.5281 23.017 12.5281 20.03C12.5127 19.0238 12.7784 18.0331 13.2957 17.168C13.8129 16.3028 14.5614 15.5972 15.4581 15.1293C15.6056 15.0559 15.7569 14.9903 15.9114 14.9328C15.9114 14.8905 15.9266 14.8452 15.9358 14.8059C16.6508 11.2263 20.101 8.58402 24.1202 8.58402C26.023 8.57267 27.8779 9.17643 29.4051 10.3042C29.5299 10.401 29.6546 10.4977 29.7763 10.6066C29.9244 10.538 30.0765 10.4746 30.2327 10.4161C31.282 10.0146 32.3973 9.81057 33.5217 9.81448C34.0896 9.81537 34.6564 9.86289 35.2164 9.95657C38.4659 10.5128 41.1281 12.5414 42.1078 15.1777C42.1443 15.2714 42.1747 15.3621 42.2052 15.4589C42.3116 15.5073 42.4181 15.5617 42.5094 15.6191C43.4886 16.175 44.3002 16.9813 44.8599 17.9542C45.4195 18.9271 45.7068 20.0311 45.6919 21.1516Z" fill="url(#paint1_linear_1466_6413)"/>
<path d="M38.4264 31.0588C38.399 31.1647 38.3655 31.2674 38.329 31.3612C37.494 31.6314 36.6449 31.8565 35.7854 32.0353C34.5912 32.2761 33.3794 32.4207 32.1617 32.4677C31.5532 32.4828 30.9447 32.4677 30.3362 32.4495C29.73 32.4143 29.1264 32.3427 28.5289 32.2349C29.734 32.3271 30.9445 32.3271 32.1496 32.2349C33.3504 32.1611 34.5442 32.0004 35.7215 31.7542L36.1657 31.6726L36.6069 31.5607C36.9112 31.4851 37.1911 31.4247 37.4801 31.343L38.4264 31.0588Z" fill="white"/>
<path d="M38.542 29.8556V30.1579L38.2377 30.2456C37.0564 30.5626 35.8549 30.8 34.6414 30.9561C33.4309 31.119 32.2049 31.1352 30.9904 31.0044C31.5996 31.0246 32.2095 31.0034 32.8159 30.9409C33.4244 30.8986 34.0329 30.817 34.6171 30.7263C35.8096 30.5363 36.9909 30.282 38.1556 29.9644L38.542 29.8556Z" fill="white"/>
<path d="M38.542 28.6342V28.9365L38.2377 29.0242C37.0563 29.3438 35.8549 29.5851 34.6414 29.7467C33.4307 29.9086 32.2047 29.9238 30.9904 29.7921C31.5995 29.8117 32.2094 29.7915 32.8159 29.7316C33.4244 29.6893 34.0329 29.6046 34.6171 29.5139C35.8096 29.3239 36.9909 29.0696 38.1556 28.7521L38.542 28.6342Z" fill="white"/>
<path d="M17.4267 17.7867C16.883 17.5685 16.411 17.2045 16.0634 16.7352C15.7158 16.266 15.5062 15.71 15.4581 15.1293C15.6056 15.0558 15.7569 14.9902 15.9115 14.9328C15.9115 14.8904 15.9267 14.8451 15.9358 14.8058C15.9102 15.3874 16.0335 15.966 16.2943 16.4873C16.555 17.0087 16.9446 17.4558 17.4267 17.7867Z" fill="white"/>
<path d="M27.9721 14.0258C27.534 12.4326 28.1821 11.2082 29.4052 10.2921C29.5299 10.3889 29.6547 10.4856 29.7764 10.5944C29.9245 10.5259 30.0766 10.4624 30.2328 10.404C28.8058 11.2021 27.8717 12.3116 27.9721 14.0258Z" fill="white"/>
<path d="M42.5216 15.6191C41.6704 15.4551 40.7883 15.6217 40.0571 16.0847C40.6075 15.5454 41.3362 15.2231 42.1078 15.1777C42.1443 15.2715 42.1747 15.3622 42.2052 15.4589C42.3117 15.5073 42.4181 15.5617 42.5216 15.6191Z" fill="white"/>
<path d="M36.0957 25.6865C35.7688 25.3543 35.5409 24.9386 35.4372 24.4855C35.3336 24.0325 35.3582 23.5597 35.5085 23.1197C35.571 22.9491 35.6442 22.7825 35.7275 22.6209C35.2055 23.2255 34.9413 24.0086 34.9913 24.8037C34.2935 24.9686 33.5787 25.0518 32.8615 25.0516C32.3077 25.0499 31.7551 25.0024 31.2094 24.9095C30.0559 24.7145 28.9476 24.313 27.9386 23.7244C27.6503 23.5572 27.3997 23.3329 27.2023 23.0653C26.2895 21.8077 25.9366 20.4563 26.7185 18.9507C25.5472 20.3716 25.8392 22.0435 27.0228 23.6549C26.5204 24.377 25.8509 24.9686 25.0704 25.3801C24.29 25.7915 23.4215 26.0106 22.5381 26.019C22.2703 26.0168 22.0029 25.9966 21.7379 25.9586C18.9752 25.0516 16.7146 23.8121 16.958 21.1214C16.4256 22.8265 17.2623 24.2353 18.8627 25.2844C18.9418 25.3328 19.1122 25.4114 19.1122 25.4114C20.1205 26.1009 21.314 26.4738 22.5381 26.4816C23.4961 26.4759 24.4386 26.241 25.2859 25.7969C26.1332 25.3527 26.8605 24.7124 27.4062 23.93C28.5474 24.6509 29.8216 25.1391 31.1546 25.366C31.7276 25.4622 32.3077 25.5107 32.8888 25.5111C33.6482 25.5127 34.405 25.4244 35.1434 25.2481C36.0318 26.3909 37.2275 27.4037 38.5662 27.703V27.2283C37.6126 26.9567 36.756 26.4221 36.0957 25.6865Z" fill="white"/>
<path d="M17.3202 14.7182C17.6985 13.7403 18.2384 12.8319 18.9175 12.0305C19.6189 11.227 20.5021 10.6001 21.4946 10.2015C22.4943 9.82734 23.5621 9.66664 24.6284 9.72984C25.6811 9.78815 26.7175 10.0137 27.6983 10.398C26.6948 10.1288 25.6616 9.98361 24.6223 9.96565C23.5945 9.93819 22.5714 10.115 21.6132 10.4857C20.6556 10.858 19.7946 11.4397 19.094 12.1877C18.3946 12.9511 17.7983 13.8017 17.3202 14.7182Z" fill="white"/>
<path d="M29.5664 12.2118C30.4574 11.6493 31.4378 11.2404 32.466 11.0025C33.5124 10.776 34.598 10.7998 35.6333 11.0721C36.6595 11.365 37.6115 11.8709 38.4263 12.5565C39.2297 13.2339 39.9172 14.0364 40.4618 14.9328C39.8239 14.1181 39.0871 13.3849 38.2681 12.75C37.4569 12.1144 36.5258 11.6467 35.5298 11.3744C34.5383 11.1053 33.4987 11.0598 32.4873 11.2414C31.4756 11.4385 30.4939 11.7647 29.5664 12.2118Z" fill="white"/>
<path d="M43.5286 17.4421C44.1764 18.5503 44.5595 19.7915 44.6483 21.07C44.6859 21.7214 44.5931 22.3736 44.3753 22.9891C44.1576 23.6045 43.8191 24.171 43.3796 24.6556C42.4542 25.5997 41.1914 26.1429 39.8654 26.1672C39.2143 26.1779 38.5677 26.0586 37.9638 25.8165C37.3687 25.5683 36.8381 25.1889 36.4121 24.707C36.8725 25.1333 37.4151 25.4627 38.007 25.6752C38.5989 25.8877 39.2279 25.9789 39.8563 25.9435C41.1064 25.8893 42.2875 25.3588 43.1544 24.4621C43.5798 24.0165 43.9063 23.4871 44.1128 22.9082C44.3171 22.325 44.4199 21.7116 44.4171 21.0942C44.4131 20.4699 44.3261 19.8488 44.1584 19.247C43.9961 18.63 43.7855 18.0266 43.5286 17.4421Z" fill="white"/>
<path d="M34.7023 23.4221C33.916 23.725 33.0861 23.9016 32.2439 23.9452C31.8183 23.9601 31.3923 23.9328 30.9721 23.8635C30.552 23.7832 30.1433 23.6522 29.7551 23.4735C28.9685 23.1092 28.314 22.5127 27.8809 21.7654C27.6716 21.39 27.5315 20.9805 27.4671 20.5561C27.3912 20.1377 27.4758 19.7062 27.7044 19.3468C27.5338 19.7197 27.5015 20.1406 27.6131 20.5349C27.7027 20.9288 27.8624 21.3035 28.0847 21.6414C28.5232 22.315 29.1415 22.8541 29.8707 23.1984C30.6158 23.5314 31.4239 23.7025 32.2409 23.7003C33.0693 23.7006 33.8951 23.6073 34.7023 23.4221Z" fill="white"/>
<path d="M26.603 22.2944C26.0902 22.957 25.4739 23.5337 24.7775 24.0026C24.4216 24.2356 24.0423 24.4311 23.6456 24.5861C23.2431 24.7382 22.823 24.8397 22.3952 24.8884C21.5326 24.9819 20.6621 24.8077 19.9033 24.3895C19.5278 24.175 19.194 23.8955 18.9175 23.5642C18.6329 23.2433 18.4798 22.8279 18.4885 22.4002C18.5388 22.8084 18.7315 23.186 19.0331 23.4675C19.3147 23.7572 19.6453 23.9956 20.0098 24.1719C20.7395 24.5217 21.553 24.662 22.3586 24.577C23.1682 24.4843 23.9484 24.2204 24.6466 23.803C25.3539 23.375 26.0101 22.8689 26.603 22.2944Z" fill="white"/>
<path d="M18.5281 24.589C18.1109 24.6051 17.6932 24.5726 17.2837 24.4923C16.8717 24.4032 16.4729 24.2619 16.0971 24.072C15.3459 23.6655 14.7234 23.0594 14.2989 22.3216C13.8759 21.5896 13.6301 20.7698 13.5809 19.9272C13.5538 19.508 13.5897 19.0872 13.6874 18.6786C13.7389 18.4741 13.8187 18.2777 13.9247 18.0951C14.0194 17.9031 14.1757 17.7478 14.3689 17.6537C14.2143 17.7834 14.0873 17.9425 13.9954 18.1216C13.9034 18.3007 13.8484 18.4962 13.8334 18.6967C13.7729 19.0976 13.7729 19.5051 13.8334 19.906C13.9262 20.7029 14.1797 21.4731 14.5788 22.1704C14.9795 22.8631 15.5473 23.4459 16.2309 23.8665C16.9355 24.2686 17.719 24.5151 18.5281 24.589Z" fill="white"/>
</g>
<path d="M10.2303 41.3702C10.433 41.6259 10.9885 41.5289 11.1912 40.9823C11.6937 39.6334 10.6094 38.8665 9.62197 39.0163C6.98599 39.3954 6.07794 44.6233 9.3046 45.2316C10.7416 45.5049 12.2227 44.0326 12.4784 42.9923C12.6635 42.2694 12.2756 42.3752 12.1169 42.7455C11.632 43.9004 10.3096 44.5087 9.70132 44.2266C8.32602 43.5918 8.59932 40.515 9.92172 39.7657C10.6975 39.4659 9.93053 41.0087 10.2303 41.3702ZM15.3575 39.4395C15.3575 38.4433 13.7795 39.6687 12.9155 39.4748C12.3689 39.3425 12.5452 39.8715 12.8185 39.9861C13.3387 40.1977 13.8412 40.1712 14.2026 39.9861C14.2026 40.5856 14.185 41.476 14.185 42.0843C12.2719 43.1951 12.4483 44.6145 13.2505 45.0729C13.9999 45.4961 15.2958 44.7996 15.3311 43.6271C15.3399 43.2304 15.3399 42.7808 15.3487 42.3135C15.7102 42.1813 16.1069 42.1196 16.486 42.243L16.5036 44.9407C16.5301 45.3286 17.3059 45.2052 17.729 44.9583L17.7379 39.2455C17.7555 38.6196 16.5477 39.1045 16.5036 39.2896L16.486 41.5201C16.1245 41.4319 15.7278 41.4848 15.3575 41.5994C15.3664 40.7266 15.3575 39.9156 15.3575 39.4395ZM14.2026 42.9483C12.4571 44.7291 14.2908 44.9054 14.2026 42.9483V42.9483ZM21.5459 40.7002C21.7487 40.9206 22.3305 40.8324 22.4539 40.2594C22.6391 39.3954 22.0748 38.8753 20.9905 38.9811C19.8885 39.0869 19.2361 40.4798 20.1265 41.3526C18.2752 41.5906 17.7903 44.9848 20.4792 45.2492C22.0131 45.3991 23.3796 43.8739 23.6353 42.8337C23.7146 42.5075 23.3179 42.384 23.1945 42.6838C22.8507 43.5301 22.2776 44.0679 21.6605 44.2795C20.0472 44.8349 19.3683 42.3311 21.1139 41.7405C21.396 41.6964 21.4136 41.2732 21.2197 41.2291C20.3998 41.0793 20.4527 39.9685 21.2726 39.6334C22.2247 39.3073 21.3431 40.4798 21.5459 40.7002ZM29.3556 38.3287C27.6541 39.0428 24.5861 38.9546 23.7486 40.374C23.5634 40.6825 23.6075 41.4672 23.9954 41.6082C24.1982 40.2858 26.1906 40.1712 28.7737 39.9861C29.7435 39.9156 29.9991 38.0554 29.3556 38.3287ZM26.27 40.6825C25.8821 40.6825 25.4413 40.7883 25.4413 41.1498C25.4236 41.573 25.4324 41.9785 25.4324 42.384C25.1768 42.5075 24.9035 42.6397 24.6654 42.7984C24.5949 42.9042 24.5156 43.1775 24.6478 43.151C24.8329 43.1158 25.1768 43.0276 25.4413 42.9394C25.4413 43.6271 25.4324 44.2178 25.4324 44.8084C25.4324 45.6371 26.6755 45.1699 26.6755 44.9671C26.7108 44.2354 26.7108 43.4067 26.6931 42.6661C27.4777 42.578 27.7863 42.6133 27.7863 42.6133C28.3065 42.6044 28.5797 41.6611 28.3241 41.6788C27.6981 41.7228 27.1075 41.8463 26.6755 41.9521C26.6667 41.5377 26.6667 41.1233 26.6755 40.7178C26.5609 40.7002 26.4286 40.6825 26.27 40.6825ZM32.0307 40.7002C32.2335 40.9206 32.8154 40.8324 32.9388 40.2594C33.1239 39.3954 32.5597 38.8753 31.4753 38.9811C30.3733 39.0869 29.7209 40.4798 30.6114 41.3526C28.76 41.5906 28.2751 44.9848 30.964 45.2492C32.498 45.3991 33.8645 43.8739 34.1201 42.8337C34.1995 42.5075 33.8027 42.384 33.6793 42.6838C33.3355 43.5301 32.7625 44.0679 32.1453 44.2795C30.532 44.8349 29.8532 42.3311 31.5987 41.7405C31.8809 41.6964 31.8985 41.2732 31.7045 41.2291C30.8846 41.0793 30.9375 39.9685 31.7574 39.6334C32.7096 39.3073 31.828 40.4798 32.0307 40.7002ZM36.6666 42.578C36.6666 42.481 36.6666 41.5818 36.6755 41.1851C36.6755 40.7178 35.5294 40.6561 35.5558 41.0705V42.0049C35.5558 42.9042 35.5294 44.1825 35.547 45.0817C35.547 45.3815 36.6843 45.2404 36.6843 44.9583C36.6755 44.8173 36.6755 44.2618 36.6666 43.6359C37.1691 43.7064 37.8127 43.8387 37.989 44.9407C38.1036 45.6371 39.2056 45.0288 39.1351 44.5351C39.047 43.9357 38.7296 43.3362 37.7598 43.1951C39.8404 42.8777 39.9991 40.2858 38.518 39.4042C36.7283 38.3375 34.7271 39.4571 34.0747 40.5856C33.8896 40.9118 34.3304 41.2644 34.4803 41.0793C34.8858 40.5327 35.4148 40.2065 36.2611 40.1007C38.7825 39.7921 38.5004 42.4898 36.6666 42.578ZM42.3424 42.816C41.0641 44.6233 42.3865 44.8349 42.3424 42.816V42.816ZM43.8852 41.617C43.8588 41.5553 43.6913 41.5641 43.4885 41.5906C43.4973 40.7266 43.4973 39.8009 43.4973 39.3337C43.4973 38.3375 41.9193 39.5629 41.0553 39.369C40.5087 39.2367 40.685 39.7657 40.9583 39.8803C41.4785 40.0919 41.981 40.0654 42.3424 39.8803C42.3424 40.4798 42.3248 41.379 42.3248 41.9873C41.7077 42.3047 41.1082 43.0629 40.9671 43.7593C40.7291 44.9759 41.8752 45.6195 42.8626 44.9142C43.5502 44.4205 43.4973 43.3626 43.4885 42.1019C43.753 41.9256 43.9557 41.7581 43.8852 41.617ZM48.136 39.2984C47.4483 40.8501 47.3249 41.1233 46.6902 42.4457C46.3287 42.5163 45.9937 42.578 45.6499 42.6397C45.2443 42.7102 45.1914 43.4684 45.4559 43.4331C46.1788 43.3362 46.0201 43.3626 46.3551 43.3185C46.0907 43.8475 45.8174 44.35 45.5176 44.9054C45.2796 45.355 46.5403 45.1523 46.5932 45.0465C46.84 44.544 46.9282 44.3588 47.4131 43.2656C47.6775 43.2392 48.1183 43.1687 48.7619 43.0981C48.8677 43.6447 48.9471 44.0679 49.1146 45.0112C49.2115 45.7253 50.3929 45.1787 50.3312 44.9319C49.5201 41.3526 49.4672 41.1145 49.0528 39.3073C48.9471 38.8665 48.3211 38.8841 48.136 39.2984ZM48.4181 40.5856C48.5151 41.2732 48.5768 41.5553 48.6649 42.243C48.4534 42.2694 47.8891 42.3223 47.7216 42.34C47.8979 41.8992 48.136 41.3526 48.4181 40.5856Z" fill="url(#paint2_linear_1466_6413)"/>
</g>
<defs>
<linearGradient id="paint0_linear_1466_6413" x1="19.1061" y1="27.7366" x2="38.6942" y2="27.7366" gradientUnits="userSpaceOnUse">
<stop stop-color="#FF8B38"/>
<stop offset="1" stop-color="#F3664B"/>
</linearGradient>
<linearGradient id="paint1_linear_1466_6413" x1="12.5275" y1="17.9817" x2="45.9524" y2="17.9817" gradientUnits="userSpaceOnUse">
<stop stop-color="#FF8B38"/>
<stop offset="1" stop-color="#F3664B"/>
</linearGradient>
<linearGradient id="paint2_linear_1466_6413" x1="7.65601" y1="43.656" x2="50.993" y2="43.656" gradientUnits="userSpaceOnUse">
<stop stop-color="#FF8B38"/>
<stop offset="1" stop-color="#F3664B"/>
</linearGradient>
<clipPath id="clip0_1466_6413">
<rect width="43.384" height="40.6" fill="white" transform="translate(7.19202 8.58398)"/>
</clipPath>
<clipPath id="clip1_1466_6413">
<rect width="33.176" height="25.752" fill="white" transform="translate(12.5281 8.58398)"/>
</clipPath>
</defs>
</svg>
